<svg width="382" height="650" viewBox="0 0 382 650" fill="none" xmlns="http://www.w3.org/2000/svg">
<path d="M380.93 162.561L360.502 1V163.837L319.965 6.10362L340.553 167.665L280.546 16.1514L321.083 174.045L242.563 31.1432L302.73 182.657L206.815 50.7603L285.494 193.662L173.779 74.843L269.694 206.58L144.095 102.753L255.809 221.413L118.081 134.173L243.84 237.999L96.2172 168.622L233.945 255.862L78.8217 205.464L226.444 274.841L66.2139 244.219L221.338 294.618L58.5535 284.251L218.784 314.713L56 324.92L218.784 335.128L58.5535 365.59L221.338 355.383L66.2139 405.621L226.444 375.159L78.8217 444.536L233.945 394.138L96.2172 481.378L243.84 412.001L118.081 515.828L255.809 428.428L144.095 547.247L269.694 443.26L173.779 575.157L285.494 456.338L206.815 599.08L302.73 467.184L242.563 618.697L321.083 475.955L280.546 633.689L340.553 482.176L319.965 643.896L360.502 486.003L360.502 649L380.93 486.003" stroke="black" stroke-miterlimit="10"/>
<path d="M95.7269 468.596L141.434 493.5L95.7269 518.604L70.7231 564.21L45.7194 518.604L0.0124688 493.5L45.7194 468.596L70.7231 422.789L95.7269 468.596Z" fill="#B9FF66"/>
<path d="M217.114 242.065L298.789 286.566L217.114 331.425L172.434 412.922L127.754 331.425L46.0788 286.566L127.754 242.065L172.434 160.211L217.114 242.065Z" fill="#191A23"/>
</svg>
