<svg width="227" height="41" viewBox="0 0 227 41" fill="none" xmlns="http://www.w3.org/2000/svg">
<circle cx="20.5" cy="20.5" r="20.5" fill="#B9FF66"/>
<path d="M11.2501 24.7009C10.5326 25.1151 10.2868 26.0325 10.701 26.75C11.1152 27.4674 12.0326 27.7132 12.7501 27.299L11.2501 24.7009ZM30.7695 16.3882C30.9839 15.588 30.509 14.7655 29.7088 14.5511L16.6688 11.057C15.8686 10.8426 15.0461 11.3175 14.8317 12.1177C14.6173 12.9179 15.0921 13.7404 15.8923 13.9548L27.4835 17.0606L24.3776 28.6517C24.1632 29.4519 24.6381 30.2744 25.4383 30.4889C26.2385 30.7033 27.061 30.2284 27.2754 29.4282L30.7695 16.3882ZM12.7501 27.299L30.0706 17.299L28.5706 14.7009L11.2501 24.7009L12.7501 27.299Z" fill="black"/>
<path d="M57.32 27.5V13.5H62.22L64.64 25.7H65L67.42 13.5H72.32V27.5H69.76V15.44H69.4L67 27.5H62.64L60.24 15.44H59.88V27.5H57.32ZM78.1167 27.78C77.4101 27.78 76.7767 27.66 76.2167 27.42C75.6567 27.1667 75.2101 26.8067 74.8767 26.34C74.5567 25.86 74.3967 25.28 74.3967 24.6C74.3967 23.92 74.5567 23.3533 74.8767 22.9C75.2101 22.4333 75.6634 22.0867 76.2367 21.86C76.8234 21.62 77.4901 21.5 78.2367 21.5H80.9567V20.94C80.9567 20.4733 80.8101 20.0933 80.5167 19.8C80.2234 19.4933 79.7567 19.34 79.1167 19.34C78.4901 19.34 78.0234 19.4867 77.7167 19.78C77.4101 20.06 77.2101 20.4267 77.1167 20.88L74.7967 20.1C74.9567 19.5933 75.2101 19.1333 75.5567 18.72C75.9167 18.2933 76.3901 17.9533 76.9767 17.7C77.5767 17.4333 78.3034 17.3 79.1567 17.3C80.4634 17.3 81.4967 17.6267 82.2567 18.28C83.0167 18.9333 83.3967 19.88 83.3967 21.12V24.82C83.3967 25.22 83.5834 25.42 83.9567 25.42H84.7567V27.5H83.0767C82.5834 27.5 82.1767 27.38 81.8567 27.14C81.5367 26.9 81.3767 26.58 81.3767 26.18V26.16H80.9967C80.9434 26.32 80.8234 26.5333 80.6367 26.8C80.4501 27.0533 80.1567 27.28 79.7567 27.48C79.3567 27.68 78.8101 27.78 78.1167 27.78ZM78.5567 25.74C79.2634 25.74 79.8367 25.5467 80.2767 25.16C80.7301 24.76 80.9567 24.2333 80.9567 23.58V23.38H78.4167C77.9501 23.38 77.5834 23.48 77.3167 23.68C77.0501 23.88 76.9167 24.16 76.9167 24.52C76.9167 24.88 77.0567 25.1733 77.3367 25.4C77.6167 25.6267 78.0234 25.74 78.5567 25.74ZM86.5992 27.5V17.58H89.1192V27.5H86.5992ZM87.8592 16.42C87.4059 16.42 87.0192 16.2733 86.6992 15.98C86.3926 15.6867 86.2392 15.3 86.2392 14.82C86.2392 14.34 86.3926 13.9533 86.6992 13.66C87.0192 13.3667 87.4059 13.22 87.8592 13.22C88.3259 13.22 88.7126 13.3667 89.0192 13.66C89.3259 13.9533 89.4792 14.34 89.4792 14.82C89.4792 15.3 89.3259 15.6867 89.0192 15.98C88.7126 16.2733 88.3259 16.42 87.8592 16.42ZM96.0317 27.78C94.7384 27.78 93.6784 27.5 92.8517 26.94C92.0251 26.38 91.5251 25.58 91.3517 24.54L93.6717 23.94C93.7651 24.4067 93.9184 24.7733 94.1317 25.04C94.3584 25.3067 94.6317 25.5 94.9517 25.62C95.2851 25.7267 95.6451 25.78 96.0317 25.78C96.6184 25.78 97.0517 25.68 97.3317 25.48C97.6117 25.2667 97.7517 25.0067 97.7517 24.7C97.7517 24.3933 97.6184 24.16 97.3517 24C97.0851 23.8267 96.6584 23.6867 96.0717 23.58L95.5117 23.48C94.8184 23.3467 94.1851 23.1667 93.6117 22.94C93.0384 22.7 92.5784 22.3733 92.2317 21.96C91.8851 21.5467 91.7117 21.0133 91.7117 20.36C91.7117 19.3733 92.0717 18.62 92.7917 18.1C93.5117 17.5667 94.4584 17.3 95.6317 17.3C96.7384 17.3 97.6584 17.5467 98.3917 18.04C99.1251 18.5333 99.6051 19.18 99.8317 19.98L97.4917 20.7C97.3851 20.1933 97.1651 19.8333 96.8317 19.62C96.5117 19.4067 96.1117 19.3 95.6317 19.3C95.1517 19.3 94.7851 19.3867 94.5317 19.56C94.2784 19.72 94.1517 19.9467 94.1517 20.24C94.1517 20.56 94.2851 20.8 94.5517 20.96C94.8184 21.1067 95.1784 21.22 95.6317 21.3L96.1917 21.4C96.9384 21.5333 97.6117 21.7133 98.2117 21.94C98.8251 22.1533 99.3051 22.4667 99.6517 22.88C100.012 23.28 100.192 23.8267 100.192 24.52C100.192 25.56 99.8117 26.3667 99.0517 26.94C98.3051 27.5 97.2984 27.78 96.0317 27.78ZM107.478 27.5V17.58H109.998V27.5H107.478ZM108.738 16.42C108.285 16.42 107.898 16.2733 107.578 15.98C107.271 15.6867 107.118 15.3 107.118 14.82C107.118 14.34 107.271 13.9533 107.578 13.66C107.898 13.3667 108.285 13.22 108.738 13.22C109.205 13.22 109.591 13.3667 109.898 13.66C110.205 13.9533 110.358 14.34 110.358 14.82C110.358 15.3 110.205 15.6867 109.898 15.98C109.591 16.2733 109.205 16.42 108.738 16.42ZM112.791 27.5V17.58H115.271V18.88H115.631C115.791 18.5333 116.091 18.2067 116.531 17.9C116.971 17.58 117.637 17.42 118.531 17.42C119.304 17.42 119.977 17.6 120.551 17.96C121.137 18.3067 121.591 18.7933 121.911 19.42C122.231 20.0333 122.391 20.7533 122.391 21.58V27.5H119.871V21.78C119.871 21.0333 119.684 20.4733 119.311 20.1C118.951 19.7267 118.431 19.54 117.751 19.54C116.977 19.54 116.377 19.8 115.951 20.32C115.524 20.8267 115.311 21.54 115.311 22.46V27.5H112.791ZM126.481 27.5V19.66H123.961V17.58H126.481V15.74C126.481 15.06 126.681 14.52 127.081 14.12C127.495 13.7067 128.028 13.5 128.681 13.5H131.281V15.58H129.561C129.188 15.58 129.001 15.78 129.001 16.18V17.58H131.601V19.66H129.001V27.5H126.481ZM137.94 27.78C136.954 27.78 136.067 27.58 135.28 27.18C134.494 26.78 133.874 26.2 133.42 25.44C132.967 24.68 132.74 23.7667 132.74 22.7V22.38C132.74 21.3133 132.967 20.4 133.42 19.64C133.874 18.88 134.494 18.3 135.28 17.9C136.067 17.5 136.954 17.3 137.94 17.3C138.927 17.3 139.814 17.5 140.6 17.9C141.387 18.3 142.007 18.88 142.46 19.64C142.914 20.4 143.14 21.3133 143.14 22.38V22.7C143.14 23.7667 142.914 24.68 142.46 25.44C142.007 26.2 141.387 26.78 140.6 27.18C139.814 27.58 138.927 27.78 137.94 27.78ZM137.94 25.54C138.714 25.54 139.354 25.2933 139.86 24.8C140.367 24.2933 140.62 23.5733 140.62 22.64V22.44C140.62 21.5067 140.367 20.7933 139.86 20.3C139.367 19.7933 138.727 19.54 137.94 19.54C137.167 19.54 136.527 19.7933 136.02 20.3C135.514 20.7933 135.26 21.5067 135.26 22.44V22.64C135.26 23.5733 135.514 24.2933 136.02 24.8C136.527 25.2933 137.167 25.54 137.94 25.54ZM145.466 27.5V17.58H147.946V18.7H148.306C148.453 18.3 148.693 18.0067 149.026 17.82C149.373 17.6333 149.773 17.54 150.226 17.54H151.426V19.78H150.186C149.546 19.78 149.02 19.9533 148.606 20.3C148.193 20.6333 147.986 21.1533 147.986 21.86V27.5H145.466ZM153.396 27.5V17.58H155.876V18.66H156.236C156.409 18.3267 156.696 18.04 157.096 17.8C157.496 17.5467 158.023 17.42 158.676 17.42C159.383 17.42 159.949 17.56 160.376 17.84C160.803 18.1067 161.129 18.46 161.356 18.9H161.716C161.943 18.4733 162.263 18.12 162.676 17.84C163.089 17.56 163.676 17.42 164.436 17.42C165.049 17.42 165.603 17.5533 166.096 17.82C166.603 18.0733 167.003 18.4667 167.296 19C167.603 19.52 167.756 20.18 167.756 20.98V27.5H165.236V21.16C165.236 20.6133 165.096 20.2067 164.816 19.94C164.536 19.66 164.143 19.52 163.636 19.52C163.063 19.52 162.616 19.7067 162.296 20.08C161.989 20.44 161.836 20.96 161.836 21.64V27.5H159.316V21.16C159.316 20.6133 159.176 20.2067 158.896 19.94C158.616 19.66 158.223 19.52 157.716 19.52C157.143 19.52 156.696 19.7067 156.376 20.08C156.069 20.44 155.916 20.96 155.916 21.64V27.5H153.396ZM173.546 27.78C172.84 27.78 172.206 27.66 171.646 27.42C171.086 27.1667 170.64 26.8067 170.306 26.34C169.986 25.86 169.826 25.28 169.826 24.6C169.826 23.92 169.986 23.3533 170.306 22.9C170.64 22.4333 171.093 22.0867 171.666 21.86C172.253 21.62 172.92 21.5 173.666 21.5H176.386V20.94C176.386 20.4733 176.24 20.0933 175.946 19.8C175.653 19.4933 175.186 19.34 174.546 19.34C173.92 19.34 173.453 19.4867 173.146 19.78C172.84 20.06 172.64 20.4267 172.546 20.88L170.226 20.1C170.386 19.5933 170.64 19.1333 170.986 18.72C171.346 18.2933 171.82 17.9533 172.406 17.7C173.006 17.4333 173.733 17.3 174.586 17.3C175.893 17.3 176.926 17.6267 177.686 18.28C178.446 18.9333 178.826 19.88 178.826 21.12V24.82C178.826 25.22 179.013 25.42 179.386 25.42H180.186V27.5H178.506C178.013 27.5 177.606 27.38 177.286 27.14C176.966 26.9 176.806 26.58 176.806 26.18V26.16H176.426C176.373 26.32 176.253 26.5333 176.066 26.8C175.88 27.0533 175.586 27.28 175.186 27.48C174.786 27.68 174.24 27.78 173.546 27.78ZM173.986 25.74C174.693 25.74 175.266 25.5467 175.706 25.16C176.16 24.76 176.386 24.2333 176.386 23.58V23.38H173.846C173.38 23.38 173.013 23.48 172.746 23.68C172.48 23.88 172.346 24.16 172.346 24.52C172.346 24.88 172.486 25.1733 172.766 25.4C173.046 25.6267 173.453 25.74 173.986 25.74ZM186.494 27.78C185.534 27.78 184.66 27.58 183.874 27.18C183.1 26.78 182.487 26.2 182.034 25.44C181.58 24.68 181.354 23.76 181.354 22.68V22.4C181.354 21.32 181.58 20.4 182.034 19.64C182.487 18.88 183.1 18.3 183.874 17.9C184.66 17.5 185.534 17.3 186.494 17.3C187.44 17.3 188.254 17.4667 188.934 17.8C189.614 18.1333 190.16 18.5933 190.574 19.18C191 19.7533 191.28 20.4067 191.414 21.14L188.974 21.66C188.92 21.26 188.8 20.9 188.614 20.58C188.427 20.26 188.16 20.0067 187.814 19.82C187.48 19.6333 187.06 19.54 186.554 19.54C186.047 19.54 185.587 19.6533 185.174 19.88C184.774 20.0933 184.454 20.42 184.214 20.86C183.987 21.2867 183.874 21.8133 183.874 22.44V22.64C183.874 23.2667 183.987 23.8 184.214 24.24C184.454 24.6667 184.774 24.9933 185.174 25.22C185.587 25.4333 186.047 25.54 186.554 25.54C187.314 25.54 187.887 25.3467 188.274 24.96C188.674 24.56 188.927 24.04 189.034 23.4L191.474 23.98C191.3 24.6867 191 25.3333 190.574 25.92C190.16 26.4933 189.614 26.9467 188.934 27.28C188.254 27.6133 187.44 27.78 186.494 27.78ZM186.494 31.78C186.067 31.78 185.647 31.74 185.234 31.66C184.834 31.58 184.487 31.4933 184.194 31.4L184.594 29.9C184.847 29.98 185.114 30.0533 185.394 30.12C185.687 30.1867 186.014 30.22 186.374 30.22C186.64 30.22 186.86 30.1733 187.034 30.08C187.207 29.9867 187.294 29.84 187.294 29.64C187.294 29.4533 187.214 29.3133 187.054 29.22C186.907 29.14 186.66 29.1 186.314 29.1H185.554L185.694 27.1H187.414L187.334 28.28C187.84 28.28 188.267 28.42 188.614 28.7C188.974 28.98 189.154 29.3933 189.154 29.94C189.154 30.3667 189.027 30.7133 188.774 30.98C188.52 31.26 188.187 31.46 187.774 31.58C187.374 31.7133 186.947 31.78 186.494 31.78ZM198.272 27.78C197.286 27.78 196.399 27.58 195.612 27.18C194.826 26.78 194.206 26.2 193.752 25.44C193.299 24.68 193.072 23.7667 193.072 22.7V22.38C193.072 21.3133 193.299 20.4 193.752 19.64C194.206 18.88 194.826 18.3 195.612 17.9C196.399 17.5 197.286 17.3 198.272 17.3C199.259 17.3 200.146 17.5 200.932 17.9C201.719 18.3 202.339 18.88 202.792 19.64C203.246 20.4 203.472 21.3133 203.472 22.38V22.7C203.472 23.7667 203.246 24.68 202.792 25.44C202.339 26.2 201.719 26.78 200.932 27.18C200.146 27.58 199.259 27.78 198.272 27.78ZM198.272 25.54C199.046 25.54 199.686 25.2933 200.192 24.8C200.699 24.2933 200.952 23.5733 200.952 22.64V22.44C200.952 21.5067 200.699 20.7933 200.192 20.3C199.699 19.7933 199.059 19.54 198.272 19.54C197.499 19.54 196.859 19.7933 196.352 20.3C195.846 20.7933 195.592 21.5067 195.592 22.44V22.64C195.592 23.5733 195.846 24.2933 196.352 24.8C196.859 25.2933 197.499 25.54 198.272 25.54ZM196.032 16.66L194.652 15.78L195.312 14.64C195.512 14.2933 195.752 14.0467 196.032 13.9C196.326 13.74 196.639 13.66 196.972 13.66C197.266 13.66 197.519 13.72 197.732 13.84C197.959 13.9467 198.179 14.0933 198.392 14.28C198.512 14.3867 198.639 14.4933 198.772 14.6C198.919 14.7067 199.079 14.76 199.252 14.76C199.452 14.76 199.612 14.6933 199.732 14.56C199.866 14.4267 199.979 14.2867 200.072 14.14L200.392 13.66L201.772 14.54L201.112 15.68C200.912 16.0133 200.672 16.26 200.392 16.42C200.112 16.58 199.799 16.66 199.452 16.66C199.159 16.66 198.899 16.6067 198.672 16.5C198.459 16.38 198.246 16.2267 198.032 16.04C197.912 15.9333 197.786 15.8267 197.652 15.72C197.519 15.6133 197.359 15.56 197.172 15.56C196.972 15.56 196.812 15.6267 196.692 15.76C196.572 15.8933 196.459 16.0333 196.352 16.18L196.032 16.66ZM210.318 27.78C209.332 27.78 208.458 27.5733 207.698 27.16C206.952 26.7333 206.365 26.14 205.938 25.38C205.525 24.6067 205.318 23.7 205.318 22.66V22.42C205.318 21.38 205.525 20.48 205.938 19.72C206.352 18.9467 206.932 18.3533 207.678 17.94C208.425 17.5133 209.292 17.3 210.278 17.3C211.252 17.3 212.098 17.52 212.818 17.96C213.538 18.3867 214.098 18.9867 214.498 19.76C214.898 20.52 215.098 21.4067 215.098 22.42V23.28H207.878C207.905 23.96 208.158 24.5133 208.638 24.94C209.118 25.3667 209.705 25.58 210.398 25.58C211.105 25.58 211.625 25.4267 211.958 25.12C212.292 24.8133 212.545 24.4733 212.718 24.1L214.778 25.18C214.592 25.5267 214.318 25.9067 213.958 26.32C213.612 26.72 213.145 27.0667 212.558 27.36C211.972 27.64 211.225 27.78 210.318 27.78ZM207.898 21.4H212.538C212.485 20.8267 212.252 20.3667 211.838 20.02C211.438 19.6733 210.912 19.5 210.258 19.5C209.578 19.5 209.038 19.6733 208.638 20.02C208.238 20.3667 207.992 20.8267 207.898 21.4ZM221.461 27.78C220.168 27.78 219.108 27.5 218.281 26.94C217.455 26.38 216.955 25.58 216.781 24.54L219.101 23.94C219.195 24.4067 219.348 24.7733 219.561 25.04C219.788 25.3067 220.061 25.5 220.381 25.62C220.715 25.7267 221.075 25.78 221.461 25.78C222.048 25.78 222.481 25.68 222.761 25.48C223.041 25.2667 223.181 25.0067 223.181 24.7C223.181 24.3933 223.048 24.16 222.781 24C222.515 23.8267 222.088 23.6867 221.501 23.58L220.941 23.48C220.248 23.3467 219.615 23.1667 219.041 22.94C218.468 22.7 218.008 22.3733 217.661 21.96C217.315 21.5467 217.141 21.0133 217.141 20.36C217.141 19.3733 217.501 18.62 218.221 18.1C218.941 17.5667 219.888 17.3 221.061 17.3C222.168 17.3 223.088 17.5467 223.821 18.04C224.555 18.5333 225.035 19.18 225.261 19.98L222.921 20.7C222.815 20.1933 222.595 19.8333 222.261 19.62C221.941 19.4067 221.541 19.3 221.061 19.3C220.581 19.3 220.215 19.3867 219.961 19.56C219.708 19.72 219.581 19.9467 219.581 20.24C219.581 20.56 219.715 20.8 219.981 20.96C220.248 21.1067 220.608 21.22 221.061 21.3L221.621 21.4C222.368 21.5333 223.041 21.7133 223.641 21.94C224.255 22.1533 224.735 22.4667 225.081 22.88C225.441 23.28 225.621 23.8267 225.621 24.52C225.621 25.56 225.241 26.3667 224.481 26.94C223.735 27.5 222.728 27.78 221.461 27.78Z" fill="#F3F3F3"/>
</svg>
