<svg width="601" height="515" viewBox="0 0 601 515" fill="none" xmlns="http://www.w3.org/2000/svg">
<g clip-path="url(#clip0_1645_426)">
<path d="M310.998 432.535L328.599 427.349L323.464 445L328.599 462.601L310.998 457.465L293.347 462.601L298.533 445L293.347 427.349L310.998 432.535Z" fill="black"/>
</g>
<g clip-path="url(#clip1_1645_426)">
<path fill-rule="evenodd" clip-rule="evenodd" d="M157.465 362.657L125.315 380.315L107.728 412.394L90.1408 380.315L57.9914 362.657L90.1408 345.14L107.728 312.921L125.315 345.14L157.465 362.657ZM107.728 315.008L90.8776 345.878L60.0751 362.661L90.8776 379.579L107.728 410.314L124.578 379.579L155.381 362.661L124.578 345.878L107.728 315.008Z" fill="white"/>
</g>
<path d="M302.565 385C300.725 385 298.845 384.569 297.044 383.668C293.403 381.866 290.505 378.498 289.096 374.346L250.097 260.084C249.94 259.653 250.175 259.144 250.645 258.987L273.433 251.192C273.668 251.114 273.903 251.114 274.099 251.231C274.295 251.349 274.451 251.505 274.53 251.74L313.568 366.159C316.191 373.915 312.902 382.101 306.206 384.412C305.071 384.804 303.818 385 302.565 385ZM252.055 260.358L290.779 373.797C292.032 377.518 294.616 380.574 297.827 382.141C300.411 383.394 303.191 383.629 305.697 382.767C311.492 380.77 314.311 373.562 311.962 366.707L273.198 253.111L252.055 260.358Z" fill="black"/>
<path d="M328.087 41.875C334.519 38.5815 342.297 38.3127 351.048 41.0176C359.804 43.7239 369.505 49.4012 379.732 57.9531C399.99 74.9001 419.882 101.047 435.718 131.637H435.719C447.722 154.791 456.191 178.231 460.571 199.27C464.953 220.319 465.231 238.916 460.903 252.41L460.902 252.411C458.033 261.409 453.249 267.628 446.78 270.96L446.775 270.962C443.293 272.799 439.381 273.685 435.106 273.686C423.767 273.686 410.019 267.348 395.136 254.883L395.135 254.882C374.877 237.935 354.985 211.788 339.149 181.198C327.166 158.044 318.706 134.604 314.327 113.565C309.944 92.5154 309.657 73.9192 313.965 60.4248C316.834 51.4274 321.619 45.2066 328.087 41.875ZM339.84 39.9131C335.995 39.9131 332.379 40.6483 329.101 42.2275L328.455 42.5527C322.076 45.8034 317.465 51.9654 314.697 60.708C310.372 74.2421 310.712 92.8094 315.09 113.711C319.472 134.624 327.907 157.925 339.828 180.953C356.061 212.275 376.087 237.98 395.339 254.189C404.964 262.293 414.416 268.04 423.121 270.919C431.826 273.798 439.826 273.818 446.491 270.399L446.492 270.4C452.87 267.15 457.481 260.988 460.25 252.245C464.575 238.711 464.235 220.144 459.856 199.242C455.475 178.329 447.04 155.028 435.119 132V131.999C420.983 104.735 403.987 81.7351 387.134 65.543C370.304 49.3727 353.531 39.9131 339.84 39.9131Z" fill="black" stroke="white"/>
<path d="M384.087 191.848C377.352 191.848 367.955 183.152 361.181 170.03C355.542 159.14 353.232 147.937 355.308 141.474C356.052 139.202 357.265 137.596 358.949 136.734C365.605 133.327 377 142.61 384.909 157.848C390.547 168.737 392.857 179.94 390.782 186.403C390.038 188.675 388.824 190.281 387.141 191.143C386.201 191.613 385.183 191.848 384.087 191.848ZM362.003 137.714C361.181 137.714 360.398 137.87 359.732 138.223C358.44 138.889 357.5 140.142 356.913 141.983C354.994 148.016 357.226 158.749 362.669 169.246C369.873 183.152 380.719 192.514 386.319 189.615C387.611 188.949 388.55 187.696 389.138 185.855C391.056 179.783 388.785 169.09 383.382 158.592C377.039 146.41 367.955 137.714 362.003 137.714Z" fill="#B9FF66"/>
<path d="M194.771 292.517C194.732 292.517 194.692 292.517 194.692 292.517L173.04 290.167C172.922 290.167 172.805 290.128 172.687 290.05C168.224 289.345 162.585 283.704 158.474 275.791C154.088 267.448 152.796 259.3 155.185 255.462L155.224 255.344L166.501 235.367C166.54 235.289 166.579 235.249 166.618 235.21L195.319 205.401C195.358 205.362 195.397 205.323 195.436 205.284L268.97 152.795L315.486 54.9846C315.604 54.7887 315.76 54.632 315.995 54.5537C316.23 54.4753 316.465 54.4753 316.661 54.5929C317.092 54.7887 317.288 55.2979 317.092 55.7288C305.306 80.9941 314.625 131.211 340.232 180.645C365.879 230.157 401.628 266.821 429.154 271.874C429.585 271.953 429.898 272.344 429.859 272.814C429.82 273.245 429.428 273.559 428.997 273.598L428.253 273.559C428.214 273.559 428.175 273.559 428.136 273.559L321.399 255.266L235.571 285.976C235.531 285.976 235.453 286.015 235.414 286.015L194.888 292.478C194.849 292.517 194.81 292.517 194.771 292.517ZM173.666 288.522L194.771 290.794L235.101 284.331L321.086 253.581C321.242 253.542 321.36 253.503 321.516 253.542L417.603 269.994C391.643 258.595 361.298 224.947 338.784 181.468C316.426 138.301 306.441 94.4689 311.923 66.775L270.497 153.735C270.419 153.852 270.34 153.97 270.223 154.048L196.572 206.655L167.989 236.307L156.712 256.284C156.712 256.323 156.673 256.363 156.673 256.363C154.637 259.535 156.007 267.37 159.962 275.008C163.838 282.49 169.437 288.13 173.275 288.404C173.431 288.404 173.549 288.444 173.666 288.522Z" fill="black"/>
<path d="M269.83 153.069L316.307 55.337H316.346C304.795 80.093 313.214 130.271 339.487 181.037C365.838 231.881 402.096 267.8 429.035 272.736L428.291 272.697L321.515 254.404L319.048 253.973C306.636 251.779 290.073 235.641 278.209 212.608C266.032 188.988 263.878 165.447 269.282 154.244L269.83 153.069Z" fill="white"/>
<path d="M193.596 292.4C193.556 292.4 193.517 292.4 193.517 292.4L173 290.206C172.882 290.206 172.765 290.167 172.648 290.089C168.184 289.384 162.546 283.743 158.434 275.83C154.088 267.448 152.796 259.3 155.184 255.462L155.223 255.344L166.5 235.367C166.735 234.936 167.244 234.818 167.675 235.053C168.106 235.288 168.223 235.798 167.988 236.229L156.711 256.284C156.711 256.323 156.672 256.362 156.672 256.362C154.636 259.535 156.007 267.37 159.961 275.008C163.838 282.49 169.437 288.13 173.274 288.404C173.392 288.404 173.548 288.444 173.626 288.522L193.674 290.676C194.144 290.715 194.496 291.146 194.418 291.616C194.379 292.047 194.026 292.4 193.596 292.4Z" fill="black"/>
<path d="M194.966 292.4C194.927 292.4 194.927 292.4 194.888 292.4C194.731 292.4 194.535 292.361 194.379 292.361L173 290.206C172.882 290.206 172.765 290.167 172.648 290.089C168.184 289.384 162.546 283.743 158.434 275.83C154.088 267.448 152.796 259.3 155.184 255.462L155.223 255.344L165.521 237.404C165.913 236.385 166.422 235.484 167.048 234.74C167.322 234.388 167.831 234.348 168.184 234.583C168.536 234.858 168.654 235.328 168.419 235.719L166.97 238.187C164.66 244.415 166.931 256.637 172.882 268.075C179.343 280.57 188.153 289.697 194.457 290.52L194.927 290.559C195.397 290.598 195.749 291.029 195.71 291.499C195.749 292.047 195.397 292.4 194.966 292.4ZM173.626 288.522L188.584 290.05C182.828 286.367 176.485 278.768 171.434 268.976C166.539 259.535 164.112 249.743 164.503 242.692L156.711 256.284C156.711 256.323 156.672 256.363 156.672 256.363C154.636 259.535 156.007 267.37 159.961 275.008C163.838 282.49 169.437 288.13 173.274 288.404C173.392 288.404 173.548 288.444 173.626 288.522Z" fill="black"/>
<path d="M195.632 292.361C188.506 292.361 178.599 282.764 171.434 268.975C164.151 254.874 162.311 240.146 167.166 234.701L193.87 206.968C194.34 206.341 194.888 205.793 195.475 205.323C195.828 205.048 196.337 205.088 196.65 205.401C196.963 205.754 196.963 206.263 196.65 206.576L195.123 208.182C189.68 215.468 192.382 234.113 201.897 252.485C212.155 272.305 226.486 285.897 235.257 284.252L235.374 284.213C235.844 284.135 236.275 284.409 236.392 284.879C236.471 285.349 236.197 285.78 235.727 285.897C235.688 285.897 235.648 285.897 235.609 285.937L234.004 286.25H233.965L195.828 292.321C195.749 292.321 195.671 292.361 195.632 292.361ZM191.599 211.825L168.458 235.876C164.151 240.733 166.109 254.913 173 268.192C179.735 281.197 189.25 290.598 195.632 290.637L229.305 285.271C220.221 282.059 209.023 269.955 200.37 253.307C192.147 237.443 188.975 221.304 191.599 211.825Z" fill="black"/>
<path d="M359.341 137.479C353.193 140.612 354.094 155.145 361.925 169.638C375.042 193.885 385.496 191.025 386.71 190.594C386.749 190.594 386.749 190.634 386.71 190.634L364.196 208.77C357.579 199.486 351.275 189.145 345.48 177.981C339.959 167.288 335.299 156.633 331.619 146.292L359.341 137.479Z" fill="black"/>
<path d="M553.001 94.273C534.05 94.273 518.583 78.8396 518.583 59.8417C518.583 40.8829 534.011 25.4104 553.001 25.4104C571.991 25.4104 587.418 40.8438 587.418 59.8417C587.418 78.8004 571.991 94.273 553.001 94.273ZM553.001 27.1339C534.99 27.1339 520.306 41.7839 520.306 59.8417C520.306 77.8603 534.95 92.5495 553.001 92.5495C571.012 92.5495 585.696 77.8995 585.696 59.8417C585.696 41.823 571.052 27.1339 553.001 27.1339Z" fill="#B9FF66"/>
<path d="M526.18 304.347C522.108 304.347 517.957 303.72 513.924 302.349C504.057 299.059 496.07 292.165 491.449 282.842C486.829 273.558 486.124 263.021 489.452 253.15C496.344 232.821 518.505 221.735 538.905 228.512C548.772 231.802 556.76 238.696 561.38 248.019C566.001 257.302 566.706 267.839 563.377 277.71C557.817 294.006 542.508 304.347 526.18 304.347ZM526.571 228.277C510.949 228.277 496.304 238.148 491.019 253.738C487.847 263.178 488.513 273.245 492.937 282.098C497.362 290.989 504.997 297.609 514.433 300.743C533.933 307.206 555.116 296.63 561.694 277.201C564.865 267.761 564.2 257.694 559.775 248.841C555.351 239.95 547.715 233.33 538.279 230.196C534.403 228.864 530.448 228.277 526.571 228.277Z" fill="black"/>
<path fill-rule="evenodd" clip-rule="evenodd" d="M329.335 426.611L323.984 445L329.335 463.337L310.998 457.986L292.609 463.337L298.011 445L292.609 426.611L310.998 432.014L329.335 426.611ZM294.085 428.087L299.054 445L294.085 461.866L310.998 456.945L327.864 461.866L322.943 445L327.864 428.087L310.998 433.056L294.085 428.087Z" fill="white" stroke="white" stroke-miterlimit="10"/>
<path d="M124.947 345.509L156.423 362.659L124.947 379.947L107.728 411.354L90.5092 379.947L59.0332 362.659L90.5092 345.509L107.728 313.964L124.947 345.509Z" fill="black" stroke="white" stroke-miterlimit="10"/>
<path fill-rule="evenodd" clip-rule="evenodd" d="M553.901 396.335C558.92 394.813 562.326 392.384 564.142 389.092C565.958 385.799 566.195 381.622 564.806 376.566C563.414 371.505 560.415 365.653 555.894 359.127C546.856 346.078 531.87 330.518 512.064 313.455C472.464 279.342 413.762 239.363 345.343 201.624C276.925 163.885 211.795 135.559 161.817 120.262C136.819 112.611 115.664 108.236 99.8049 107.552C91.8733 107.21 85.3236 107.794 80.3005 109.317C75.2822 110.839 71.8761 113.268 70.06 116.56C68.2439 119.853 68.0064 124.029 69.3962 129.086C70.7874 134.147 73.7872 139.999 78.3077 146.525C87.3463 159.574 102.332 175.134 122.138 192.196C161.738 226.31 220.44 266.288 288.859 304.027C357.277 341.767 422.407 370.093 472.385 385.39C497.382 393.041 518.538 397.416 534.397 398.1C542.328 398.442 548.878 397.858 553.901 396.335ZM288.376 304.903C425.296 380.427 549.153 418.336 565.018 389.575C580.882 360.813 482.747 276.273 345.826 200.749C208.906 125.225 85.0489 87.3157 69.1843 116.077C53.3198 144.839 151.455 229.379 288.376 304.903Z" fill="white"/>
<path fill-rule="evenodd" clip-rule="evenodd" d="M533.671 433.009C538.689 431.487 542.095 429.058 543.911 425.766C545.728 422.473 545.965 418.296 544.575 413.24C543.184 408.179 540.184 402.327 535.664 395.801C526.625 382.751 511.639 367.191 491.833 350.129C452.234 316.016 393.531 276.037 325.113 238.298C256.694 200.559 191.565 172.233 141.586 156.936C116.589 149.285 95.4336 144.91 79.5745 144.226C71.6429 143.884 65.0931 144.468 60.07 145.991C55.0517 147.513 51.6456 149.941 49.8295 153.234C48.0134 156.526 47.7759 160.703 49.1657 165.76C50.5569 170.821 53.5568 176.672 58.0772 183.199C67.1159 196.248 82.1017 211.808 101.908 228.87C141.507 262.984 200.21 302.962 268.628 340.701C337.047 378.44 402.176 406.767 452.155 422.064C477.152 429.715 498.307 434.09 514.166 434.774C522.098 435.116 528.648 434.532 533.671 433.009ZM268.145 341.577C405.066 417.101 528.922 455.01 544.787 426.249C560.652 397.487 462.516 312.947 325.596 237.423C188.675 161.898 64.8184 123.99 48.9539 152.751C33.0893 181.512 131.225 266.053 268.145 341.577Z" fill="white"/>
<path fill-rule="evenodd" clip-rule="evenodd" d="M513.442 469.683C518.461 468.161 521.867 465.732 523.683 462.44C525.499 459.147 525.736 454.971 524.347 449.914C522.956 444.853 519.956 439.001 515.435 432.475C506.397 419.426 491.411 403.866 471.605 386.804C432.005 352.69 373.303 312.712 304.884 274.973C236.466 237.233 171.336 208.907 121.358 193.61C96.3604 185.959 75.2051 181.584 59.346 180.9C51.4144 180.558 44.8646 181.142 39.8415 182.665C34.8232 184.187 31.4171 186.616 29.601 189.908C27.7849 193.201 27.5474 197.377 28.9372 202.434C30.3284 207.495 33.3283 213.347 37.8487 219.873C46.8874 232.922 61.8732 248.482 81.6792 265.545C121.279 299.658 179.981 339.636 248.4 377.376C316.818 415.115 381.948 443.441 431.926 458.738C456.924 466.389 478.079 470.764 493.938 471.448C501.87 471.79 508.419 471.206 513.442 469.683ZM247.917 378.251C384.837 453.775 508.694 491.684 524.559 462.923C540.423 434.161 442.288 349.621 305.367 274.097C168.447 198.573 44.5899 160.664 28.7254 189.425C12.8608 218.187 110.996 302.727 247.917 378.251Z" fill="white"/>
<path d="M147 104.5C147 113.06 140.06 120 131.5 120C122.939 120 116 113.06 116 104.5C116 95.9396 122.939 89 131.5 89C140.06 89 147 95.9396 147 104.5Z" fill="#B9FF66"/>
<path d="M431 435C431 440.523 426.522 445 421 445C415.477 445 411 440.523 411 435C411 429.477 415.477 425 421 425C426.522 425 431 429.477 431 435Z" fill="#B9FF66"/>
<path d="M81.4995 41.5C94.2021 41.5 104.5 51.7975 104.5 64.5C104.5 77.2025 94.2021 87.5 81.4995 87.5C68.797 87.5 58.4995 77.2025 58.4995 64.5C58.4995 51.7975 68.797 41.5 81.4995 41.5Z" fill="black" stroke="white"/>
<path d="M312.311 366.595H312.312C314.715 373.618 311.84 380.845 306.085 383.017L305.809 383.117C299.834 385.158 292.873 381.124 290.431 373.911L290.43 373.91L251.593 260.121L273.435 252.648L312.311 366.595Z" fill="black" stroke="white"/>
<path d="M312.943 63.6163C309.935 75.5299 310.087 91.0438 313.226 108.561C317.176 130.602 325.868 155.885 339.043 181.306C352.239 206.746 367.92 228.47 383.675 244.468C396.394 257.382 409.196 266.596 420.805 270.997L321.365 253.95L321.236 253.928L321.112 253.972L235.134 284.744L194.72 291.19L174.502 288.995L174.677 288.879L173.234 288.768C171.378 288.625 169.018 287.259 166.572 284.856C164.144 282.47 161.697 279.126 159.662 275.171V275.17L159.281 274.417C157.42 270.659 156.2 266.977 155.677 263.816C155.115 260.417 155.376 257.726 156.387 256.164L156.432 256.094L156.453 256.014L156.475 255.922L167.687 236.098L196.312 206.367L270.003 153.789L270.11 153.713L270.166 153.594L270.752 152.34L312.943 63.6163Z" fill="#B9FF66" stroke="white"/>
<path d="M328.088 41.8755C336.426 37.575 347.319 38.4438 359.709 44.523L360.912 45.1275C373.249 51.4736 386.632 62.7443 399.685 77.7183V77.7193L399.688 77.7222C399.813 77.8629 399.802 78.0962 399.651 78.231C399.51 78.3558 399.277 78.3455 399.143 78.1939H399.142C385.843 62.9287 372.444 51.8543 360.251 45.6714C348.069 39.4941 337 38.1583 328.454 42.5523C322.275 45.7015 317.754 51.5836 314.961 59.897L314.697 60.7076C310.371 74.2417 310.711 92.8099 315.09 113.711C319.471 134.625 327.906 157.925 339.827 180.953V180.954C353.944 208.198 370.939 231.198 387.792 247.395C404.622 263.57 421.395 273.039 435.066 273.04C439.168 273.04 443.008 272.202 446.456 270.397C452.832 267.146 457.443 260.985 460.21 252.245C464.535 238.711 464.195 220.143 459.817 199.242C455.435 178.328 447 155.028 435.079 132C427.982 118.271 419.984 105.364 411.396 93.6334C411.269 93.452 411.318 93.2207 411.468 93.1158C411.649 92.9889 411.881 93.0391 411.986 93.189L411.992 93.1978C420.089 104.23 427.604 116.296 434.406 129.105L435.758 131.676C447.741 154.811 456.201 178.242 460.575 199.275C464.953 220.32 465.23 238.916 460.903 252.41L460.902 252.411C458.033 261.408 453.249 267.628 446.78 270.96L446.775 270.961C443.293 272.799 439.381 273.685 435.106 273.685C423.767 273.685 410.018 267.348 395.136 254.882H395.135C374.877 237.935 354.985 211.788 339.149 181.199C327.166 158.045 318.706 134.604 314.326 113.566C309.944 92.5158 309.656 73.9188 313.965 60.4244C316.744 51.708 321.322 45.599 327.487 42.1968L328.088 41.8755Z" fill="black" stroke="white"/>
<path d="M386.766 190.339C392.888 187.158 391.71 172.751 384.136 158.159C376.561 143.567 365.457 134.316 359.335 137.497C353.213 140.678 354.39 155.085 361.965 169.677C369.54 184.269 380.644 193.519 386.766 190.339Z" fill="#B9FF66"/>
<path d="M335.527 56.1734C342.051 52.8336 350.163 53.0626 359.301 56.731C368.155 60.2852 377.925 67.0519 388.042 76.8297L389.022 77.7857C389.176 77.9424 389.175 78.1343 389.019 78.2906C388.862 78.4476 388.669 78.4475 388.512 78.2906L388.509 78.2867L387.549 77.3511C377.644 67.7766 368.072 61.069 359.388 57.4986C350.426 53.8134 342.352 53.4501 335.852 56.8121C330.299 59.6707 326.276 65.0083 323.821 72.6539L323.82 72.6548C320.043 84.485 320.344 100.722 324.174 119C328.007 137.289 335.386 157.671 345.819 177.82V177.819C358.154 201.655 373.005 221.768 387.739 235.928C402.45 250.066 417.128 258.351 429.115 258.351C432.712 258.351 436.039 257.59 439.088 256.065L439.093 256.063C444.647 253.205 448.671 247.867 451.126 240.22V240.219C454.903 228.389 454.603 212.152 450.773 193.876C446.94 175.587 439.562 155.204 429.128 135.055V135.054C422.815 122.893 415.755 111.476 408.145 101.154C408.019 100.973 408.07 100.741 408.219 100.636C408.4 100.51 408.631 100.56 408.736 100.71L408.744 100.719C416.402 111.116 423.474 122.532 429.806 134.731C440.301 154.987 447.705 175.499 451.537 193.913C455.371 212.338 455.619 228.614 451.858 240.424C449.343 248.321 445.147 253.758 439.463 256.699C436.325 258.269 432.877 259.075 429.154 259.075C419.535 259.075 407.949 253.862 395.376 243.628L394.157 242.622C376.997 228.253 360.108 206.316 346.488 180.639L345.179 178.143C334.684 157.888 327.281 137.375 323.45 118.961C319.616 100.536 319.368 84.2601 323.128 72.4498C325.644 64.5508 329.841 59.1138 335.527 56.1734Z" fill="black" stroke="white"/>
<path d="M318.977 254.342C312.568 253.212 305.219 248.519 297.986 241.224C290.763 233.94 283.704 224.111 277.87 212.81C271.259 199.973 267.794 187.848 266.602 177.649C265.409 167.437 266.501 159.199 268.95 154.107L268.949 154.107L269.534 152.94L269.538 152.931L316 55.2676C316.072 55.1527 316.142 55.097 316.231 55.0674C316.376 55.019 316.449 55.0413 316.481 55.0606L316.505 55.0753L316.531 55.087C316.714 55.1705 316.793 55.3855 316.713 55.5606C310.757 68.3339 310.161 87.3278 314.225 109.254C318.293 131.201 327.043 156.161 339.866 180.914C352.708 205.707 368.084 227.293 383.708 243.32C399.318 259.334 415.226 269.851 429.141 272.405H429.142C429.304 272.435 429.431 272.572 429.437 272.76C429.353 272.974 429.174 273.096 429.037 273.097L428.277 273.06L428.265 273.059H428.179L321.442 254.773L318.977 254.342ZM311.392 66.5606L270.166 153.236L269.579 154.412L269.576 154.419C267.029 159.714 266.157 168.189 267.459 178.319C268.764 188.466 272.258 200.332 278.509 212.446C284.265 223.608 291.203 233.326 298.296 240.535C305.377 247.732 312.663 252.48 319.119 253.604L321.585 254.034L321.587 254.035L417.478 270.486L417.764 269.536C404.874 263.876 390.853 252.67 377.234 237.428C363.619 222.191 350.427 202.944 339.187 181.237C316.85 138.11 306.924 94.4015 312.334 66.8712L311.392 66.5606Z" fill="black" stroke="white"/>
<path d="M165.04 241.087C164.746 243.329 164.791 245.933 165.158 248.764C165.886 254.394 167.893 260.975 171.113 267.509L171.773 268.814C175.178 275.372 179.23 281.036 183.28 285.128C185.628 287.5 188.003 289.369 190.271 290.565L174.515 288.986L174.677 288.879L173.234 288.767C171.377 288.624 169.018 287.259 166.572 284.855C164.143 282.469 161.697 279.126 159.661 275.171L159.281 274.418C157.42 270.66 156.2 266.977 155.677 263.816C155.115 260.417 155.376 257.726 156.387 256.164L156.402 256.141L156.414 256.116L156.486 255.971L165.04 241.087Z" fill="white" stroke="white"/>
<path d="M192.394 210.442C192.106 211.202 191.863 212.014 191.667 212.873C190.947 216.023 190.825 219.837 191.272 224.079C192.166 232.564 195.34 242.838 200.668 253.106V253.107C205.876 263.153 212.183 271.731 218.375 277.561C221.471 280.475 224.552 282.714 227.465 284.103C228.627 284.656 229.77 285.075 230.879 285.348L195.637 290.958C192.502 290.962 188.508 288.71 184.38 284.683C180.265 280.667 176.106 274.974 172.661 268.315H172.66C169.081 261.407 166.889 254.392 166.144 248.499C165.771 245.553 165.762 242.901 166.114 240.69C166.444 238.612 167.088 236.956 168.015 235.805L168.205 235.581L192.394 210.442Z" fill="black" stroke="white"/>
<path d="M359.241 137.215C359.459 137.158 359.639 137.267 359.693 137.415C359.776 137.643 359.679 137.827 359.547 137.893C358.146 138.594 357.139 139.931 356.514 141.777L356.396 142.148C355.4 145.341 355.525 149.7 356.561 154.477C357.6 159.267 359.566 164.53 362.307 169.562V169.563C368.734 181.439 374.462 186.771 378.781 189.068C383.118 191.374 386 190.599 386.649 190.358L386.661 190.353C386.798 190.298 387.01 190.371 387.095 190.524C387.179 190.675 387.138 190.922 387.009 191.038L364.44 209.038C364.353 209.102 364.262 209.131 364.196 209.131H364.133C364.04 209.11 363.96 209.063 363.884 208.969C357.553 200.07 351.632 190.381 346.25 180.221L345.179 178.182C339.748 167.706 335.06 157.037 331.31 146.487C331.262 146.341 331.284 146.268 331.303 146.236C331.378 146.112 331.45 146.053 331.542 146.022L331.541 146.021L359.241 137.215ZM356.016 138.882L332.602 146.364L332.106 146.522L332.284 147.011C336.011 157.256 340.562 167.617 345.818 177.819L345.819 177.82C351.311 188.415 357.431 198.502 363.983 207.804L364.29 208.241L364.706 207.906L384.244 192.159L385.275 191.328L383.952 191.27C379.744 191.085 371.452 187.939 361.621 169.792C358.783 164.561 356.784 159.19 355.752 154.307C354.719 149.417 354.665 145.057 355.667 141.822C355.932 140.987 356.233 140.273 356.606 139.601L357.218 138.499L356.016 138.882Z" fill="black" stroke="white"/>
<path d="M475.186 81.5974C493.086 72.1937 500.009 50.1159 490.65 32.2852C481.29 14.4545 459.191 7.62311 441.291 17.0268C423.391 26.4305 416.468 48.5083 425.828 66.339C435.187 84.1697 457.286 91.0011 475.186 81.5974Z" fill="black"/>
<path d="M441.567 41.2352C443.29 38.8849 445.835 37.4356 448.732 37.1223C450.925 36.8872 452.961 37.3573 454.879 38.5324C455.858 39.12 456.72 39.8642 457.542 40.7652C458.129 39.7075 458.834 38.7674 459.656 37.984C461.262 36.4172 463.18 35.5162 465.334 35.2812C468.231 34.9678 471.051 35.8296 473.243 37.749C475.397 39.6292 476.767 42.3712 477.12 45.4657C477.472 48.6385 476.611 51.6939 474.418 55.0626C472.46 58.0787 469.484 61.2124 466.039 64.8945C464.864 66.1479 463.533 67.5581 462.162 69.0466C461.81 69.4383 461.301 69.7125 460.753 69.7517C460.205 69.83 459.696 69.6733 459.226 69.36C457.542 68.1848 455.937 67.088 454.527 66.1479C450.377 63.3276 446.774 60.899 444.19 58.3921C441.293 55.611 439.805 52.7906 439.452 49.6178C439.139 46.5233 439.883 43.5463 441.567 41.2352Z" fill="white"/>
<path d="M576.735 83.5924C589.839 70.4828 589.839 49.2279 576.735 36.1183C563.63 23.0088 542.384 23.0087 529.28 36.1183C516.175 49.2279 516.175 70.4828 529.28 83.5924C542.384 96.7019 563.63 96.7019 576.735 83.5924Z" fill="#B9FF66"/>
<path d="M562.085 63.1713C560.205 63.1713 558.561 64.0723 557.464 65.4824L546.148 61.0561C546.148 60.8994 546.187 60.7819 546.187 60.6252C546.187 60.351 546.148 60.0768 546.109 59.8026L557.699 54.4362C558.756 55.6505 560.323 56.4339 562.085 56.4731C565.295 56.4731 567.958 53.8486 567.958 50.5974C567.958 47.3462 565.334 44.6826 562.085 44.6826C558.874 44.6826 556.211 47.3071 556.211 50.5583C556.211 50.8325 556.25 51.1067 556.29 51.3809L544.7 56.7473C543.642 55.533 542.076 54.7496 540.314 54.7104C537.103 54.7104 534.441 57.3348 534.441 60.586C534.441 63.8372 537.064 66.5009 540.314 66.5009C542.194 66.5009 543.838 65.5999 544.935 64.1898L556.25 68.6161C556.25 68.7728 556.211 68.8903 556.211 69.047C556.211 72.2982 558.835 74.9618 562.085 74.9618C565.295 74.9618 567.958 72.3373 567.958 69.0861C567.919 65.8349 565.295 63.2105 562.085 63.1713Z" fill="black"/>
<path d="M562.529 189.993C577.895 179.322 581.756 158.282 571.152 142.999C560.548 127.715 539.494 123.975 524.128 134.645C508.761 145.315 504.9 166.355 515.505 181.639C526.109 196.923 547.162 200.663 562.529 189.993Z" fill="black"/>
<path d="M534.874 178.373L529.94 151.619C529.705 150.248 530.958 149.112 532.289 149.465L561.46 157.73C562.948 158.161 563.3 160.08 562.087 161.02L537.81 179.509C536.753 180.371 535.148 179.783 534.874 178.373Z" fill="white"/>
<path d="M542.998 299.581C561.974 290.34 569.914 267.553 560.733 248.686C551.552 229.819 528.726 222.016 509.749 231.257C490.773 240.499 482.833 263.286 492.014 282.153C501.195 301.02 524.021 308.823 542.998 299.581Z" fill="#B9FF66"/>
<path d="M545.837 259.261C545.446 268.78 529.353 291.029 525.516 296.238C525.124 296.787 524.302 296.748 523.949 296.16C521.522 292.243 513.495 279.082 509.305 268.427C507.622 264.197 506.565 260.358 506.682 257.655C507.113 246.844 516.236 238.422 527.043 238.853C537.85 239.362 546.268 248.45 545.837 259.261Z" fill="black"/>
<path d="M532.592 264.826C536.094 261.323 536.094 255.644 532.592 252.141C529.091 248.638 523.413 248.638 519.912 252.141C516.41 255.644 516.41 261.323 519.912 264.826C523.413 268.329 529.091 268.329 532.592 264.826Z" fill="#B9FF66"/>
<defs>
<clipPath id="clip0_1645_426">
<rect width="36" height="36" fill="white" transform="translate(293 427)"/>
</clipPath>
<clipPath id="clip1_1645_426">
<rect width="70.3259" height="70.3259" fill="white" transform="translate(107.728 313) rotate(45)"/>
</clipPath>
</defs>
</svg>
